<svg id="visual" viewBox="0 0 1920 1080" width="1920" height="1080" xmlns="http://www.w3.org/2000/svg" xmlns:xlink="http://www.w3.org/1999/xlink" version="1.1"><rect x="0" y="0" width="1920" height="1080" fill="#fff"></rect><defs><linearGradient id="grad1_0" x1="43.8%" y1="0%" x2="100%" y2="100%"><stop offset="14.444444444444446%" stop-color="#7a2582" stop-opacity="1"></stop><stop offset="85.55555555555554%" stop-color="#7a2582" stop-opacity="1"></stop></linearGradient></defs><defs><linearGradient id="grad1_1" x1="43.8%" y1="0%" x2="100%" y2="100%"><stop offset="14.444444444444446%" stop-color="#7a2582" stop-opacity="1"></stop><stop offset="85.55555555555554%" stop-color="#be92bf" stop-opacity="1"></stop></linearGradient></defs><defs><linearGradient id="grad1_2" x1="43.8%" y1="0%" x2="100%" y2="100%"><stop offset="14.444444444444446%" stop-color="#ffffff" stop-opacity="1"></stop><stop offset="85.55555555555554%" stop-color="#be92bf" stop-opacity="1"></stop></linearGradient></defs><defs><linearGradient id="grad2_0" x1="0%" y1="0%" x2="56.3%" y2="100%"><stop offset="14.444444444444446%" stop-color="#7a2582" stop-opacity="1"></stop><stop offset="85.55555555555554%" stop-color="#7a2582" stop-opacity="1"></stop></linearGradient></defs><defs><linearGradient id="grad2_1" x1="0%" y1="0%" x2="56.3%" y2="100%"><stop offset="14.444444444444446%" stop-color="#be92bf" stop-opacity="1"></stop><stop offset="85.55555555555554%" stop-color="#7a2582" stop-opacity="1"></stop></linearGradient></defs><defs><linearGradient id="grad2_2" x1="0%" y1="0%" x2="56.3%" y2="100%"><stop offset="14.444444444444446%" stop-color="#be92bf" stop-opacity="1"></stop><stop offset="85.55555555555554%" stop-color="#ffffff" stop-opacity="1"></stop></linearGradient></defs><g transform="translate(1920, 0)"><path d="M0 594C-34.5 568.3 -69.1 542.5 -105.7 531.6C-142.4 520.6 -181.3 524.4 -210.9 509.1C-240.5 493.7 -260.8 459.1 -297.8 445.7C-334.8 432.2 -388.4 440 -420 420C-451.6 400.1 -461.2 352.5 -464.8 310.6C-468.4 268.6 -465.9 232.3 -487.8 202.1C-509.7 171.8 -555.9 147.6 -577.7 114.9C-599.4 82.2 -596.7 41.1 -594 0L0 0Z" fill="#dfc8df"></path><path d="M0 396C-23 378.8 -46 361.7 -70.5 354.4C-94.9 347.1 -120.8 349.6 -140.6 339.4C-160.3 329.1 -173.9 306.1 -198.5 297.1C-223.2 288.2 -258.9 293.3 -280 280C-301.1 266.7 -307.5 235 -309.9 207C-312.2 179.1 -310.6 154.9 -325.2 134.7C-339.8 114.5 -370.6 98.4 -385.1 76.6C-399.6 54.8 -397.8 27.4 -396 0L0 0Z" fill="#9d5da0"></path><path d="M0 198C-11.5 189.4 -23 180.8 -35.2 177.2C-47.5 173.5 -60.4 174.8 -70.3 169.7C-80.2 164.6 -86.9 153 -99.3 148.6C-111.6 144.1 -129.5 146.7 -140 140C-150.5 133.4 -153.7 117.5 -154.9 103.5C-156.1 89.5 -155.3 77.4 -162.6 67.4C-169.9 57.3 -185.3 49.2 -192.6 38.3C-199.8 27.4 -198.9 13.7 -198 0L0 0Z" fill="#7a2582"></path></g><g transform="translate(0, 1080)"><path d="M0 -594C34 -561.9 68 -529.8 103 -517.9C138 -505.9 174.1 -514.1 210.9 -509.1C247.6 -504 284.9 -485.7 300.6 -449.8C316.2 -414 310.2 -360.5 342.2 -342.2C374.3 -324 444.5 -340.9 490.6 -327.8C536.7 -314.7 558.7 -271.6 548.8 -227.3C538.9 -183 497 -137.4 499.2 -99.3C501.4 -61.2 547.7 -30.6 594 0L0 0Z" fill="#dfc8df"></path><path d="M0 -396C22.7 -374.6 45.3 -353.2 68.7 -345.2C92 -337.3 116.1 -342.7 140.6 -339.4C165.1 -336 189.9 -323.8 200.4 -299.9C210.8 -276 206.8 -240.3 228.2 -228.2C249.5 -216 296.3 -227.2 327 -218.5C357.8 -209.8 372.5 -181.1 365.9 -151.5C359.2 -122 331.3 -91.6 332.8 -66.2C334.3 -40.8 365.1 -20.4 396 0L0 0Z" fill="#9d5da0"></path><path d="M0 -198C11.3 -187.3 22.7 -176.6 34.3 -172.6C46 -168.6 58 -171.4 70.3 -169.7C82.5 -168 95 -161.9 100.2 -149.9C105.4 -138 103.4 -120.2 114.1 -114.1C124.8 -108 148.2 -113.6 163.5 -109.3C178.9 -104.9 186.2 -90.5 182.9 -75.8C179.6 -61 165.7 -45.8 166.4 -33.1C167.1 -20.4 182.6 -10.2 198 0L0 0Z" fill="#7a2582"></path></g></svg>